<svg id="Слой_1" data-name="Слой 1" xmlns="http://www.w3.org/2000/svg" viewBox="0 0 597.4 393.41"><defs><style>.cls-1{fill:#3a8fc9;}.cls-1,.cls-2{stroke:#f9f9f9;stroke-miterlimit:10;stroke-width:2px;}.cls-2{fill:none;}.cls-3{font-size:23px;fill:#fff;}.cls-3,.cls-4,.cls-5{font-family:GothicA1-Bold, Gothic A1;font-weight:700;}.cls-4{font-size:14px;}.cls-4,.cls-5{fill:#aaadaf;}.cls-5{font-size:12px;}.cls-6{letter-spacing:0em;}.cls-7{letter-spacing:-0.02em;}.cls-8{letter-spacing:-0.02em;}.cls-9{letter-spacing:0em;}.cls-10{letter-spacing:0.02em;}</style></defs><title>nickskills</title><circle class="cls-1" cx="50.23" cy="95.71" r="49.23"/><circle class="cls-1" cx="187.39" cy="263.72" r="49.23"/><circle class="cls-1" cx="324" cy="95.71" r="49.23"/><circle class="cls-1" cx="463.51" cy="263.72" r="49.23"/><line class="cls-2" x1="75.42" y1="137.59" x2="160.85" y2="222.84"/><line class="cls-2" x1="350.28" y1="137.59" x2="435.72" y2="222.84"/><line class="cls-2" x1="300.39" y1="137.59" x2="214.95" y2="222.84"/><text class="cls-3" transform="translate(17.94 105.66)">HTML</text><text class="cls-3" transform="translate(164.7 273.89)">CSS</text><text class="cls-3" transform="translate(425.61 273.89)">Design</text><text class="cls-3" transform="translate(310.45 105.95)">JS</text><line class="cls-2" x1="47.05" y1="46.48" x2="72.84" y2="16.78"/><line class="cls-2" x1="320.64" y1="46.48" x2="346.43" y2="16.78"/><line class="cls-2" x1="187.39" y1="312.95" x2="213.18" y2="342.64"/><line class="cls-2" x1="213.18" y1="342.64" x2="321.29" y2="342.64"/><line class="cls-2" x1="463.51" y1="312.95" x2="489.29" y2="342.64"/><line class="cls-2" x1="489.29" y1="342.64" x2="597.4" y2="342.64"/><line class="cls-2" x1="71.88" y1="16.78" x2="179.99" y2="16.78"/><line class="cls-2" x1="346.43" y1="16.78" x2="454.54" y2="16.78"/><text class="cls-4" transform="translate(71.88 12.31)">HTML5</text><text class="cls-5" transform="translate(213.18 360.42)">CSS3<tspan x="0" y="14.4">Bootst</tspan><tspan class="cls-6" x="38.05" y="14.4">r</tspan><tspan x="42.7" y="14.4">ap</tspan><tspan x="0" y="28.8">Responsi</tspan><tspan class="cls-7" x="52.85" y="28.8">v</tspan><tspan x="59.23" y="28.8">e la</tspan><tspan class="cls-8" x="79.44" y="28.8">y</tspan><tspan x="85.71" y="28.8">o</tspan><tspan class="cls-9" x="92.79" y="28.8">u</tspan><tspan x="99.8" y="28.8">t</tspan></text><text class="cls-5" transform="translate(489.29 360.42)">Photoshop<tspan class="cls-6" x="0" y="14.4">A</tspan><tspan x="8.24" y="14.4">dobe XD</tspan></text><text class="cls-4" transform="translate(346.43 12.31)">JQue<tspan class="cls-10" x="34.4" y="0">r</tspan><tspan x="40.22" y="0">y</tspan></text></svg>